# xmcd CD database file
#
# Track frame offsets:
#	150
#	10133
#	27140
#	42869
#	53500
#	71602
#	91268
#	106370
#	121357
#	135567
#	149966
#
# Disc length: 2137 seconds
#
# Revision: 0
# Processed by: cddbd v1.5.1PL0 Copyright (c) Steve Scherf et al.
# Submitted via: CDex 1.51
#
DISCID=9308570b
DTITLE=Paul Curreri - The Spirit of the Staircase
DYEAR=2004
DGENRE=Blues
TTITLE0=Beauty Fades
TTITLE1=Drag Some Revelating
TTITLE2=On the Fiddle
TTITLE3=March Kitchen and What Was Said
TTITLE4=Memory Makes All This
TTITLE5=Middledrift's Lament
TTITLE6=Something Comes
TTITLE7=The Party at the House
TTITLE8=Spirit of the Staircase
TTITLE9=Chalie Bear
TTITLE10=You Will Look At Me
EXTD=YEAR: 2004
EXTT0=
EXTT1=
EXTT2=
EXTT3=
EXTT4=
EXTT5=
EXTT6=
EXTT7=
EXTT8=
EXTT9=
EXTT10=
PLAYORDER=
